<svg xmlns="http://www.w3.org/2000/svg" width="24" height="24" viewBox="0 0 24 24" fill="none">
  <path d="M10.5289 12.0005L15.5989 6.93055C15.8372 6.69221 15.9564 6.38888 15.9564 6.02055C15.9564 5.65221 15.8372 5.34888 15.5989 5.11055C15.3606 4.87221 15.0572 4.75305 14.6889 4.75305C14.3206 4.75305 14.0172 4.87221 13.7789 5.11055L7.79891 11.0905C7.66891 11.2205 7.57704 11.3614 7.52331 11.513C7.46957 11.6647 7.44227 11.8272 7.44141 12.0005C7.44141 12.1739 7.46871 12.3364 7.52331 12.488C7.57791 12.6397 7.66977 12.7805 7.79891 12.9105L13.7789 18.8905C14.0172 19.1289 14.3206 19.248 14.6889 19.248C15.0572 19.248 15.3606 19.1289 15.5989 18.8905C15.8372 18.6522 15.9564 18.3489 15.9564 17.9805C15.9564 17.6122 15.8372 17.3089 15.5989 17.0705L10.5289 12.0005Z" fill="white"/>
</svg>