<svg xmlns="http://www.w3.org/2000/svg" width="24" height="24" viewBox="0 0 24 24" fill="none">
  <path d="M13.4711 12.0004L8.40109 17.0704C8.16276 17.3088 8.04359 17.6121 8.04359 17.9804C8.04359 18.3488 8.16276 18.6521 8.40109 18.8904C8.63943 19.1288 8.94276 19.2479 9.31109 19.2479C9.67943 19.2479 9.98276 19.1288 10.2211 18.8904L16.2011 12.9104C16.3311 12.7804 16.423 12.6396 16.4767 12.4879C16.5304 12.3363 16.5577 12.1738 16.5586 12.0004C16.5586 11.8271 16.5313 11.6646 16.4767 11.5129C16.4221 11.3613 16.3302 11.2204 16.2011 11.0904L10.2211 5.11043C9.98276 4.8721 9.67943 4.75293 9.31109 4.75293C8.94276 4.75293 8.63943 4.8721 8.40109 5.11043C8.16276 5.34876 8.04359 5.6521 8.04359 6.02043C8.04359 6.38876 8.16276 6.6921 8.40109 6.93043L13.4711 12.0004Z" fill="#212121"/>
</svg>