<svg width="16" height="16" viewBox="0 0 16 16" fill="none" xmlns="http://www.w3.org/2000/svg">
<path id="Vector" d="M3.63206 15.9996V5.20407H0.202169V15.9996H3.63242H3.63206ZM1.91783 3.73037C3.11365 3.73037 3.85813 2.9014 3.85813 1.86542C3.83575 0.805835 3.11365 0 1.94057 0C0.766684 0 0 0.805835 0 1.86533C0 2.90131 0.744211 3.73028 1.89536 3.73028H1.91756L1.91783 3.73037ZM5.53055 15.9996H8.96017V9.97155C8.96017 9.64933 8.98255 9.32626 9.07316 9.09612C9.32099 8.4512 9.88533 7.78362 10.8331 7.78362C12.0738 7.78362 12.5705 8.77352 12.5705 10.2249V15.9996H16V9.80978C16 6.49399 14.3082 4.95098 12.0516 4.95098C10.2016 4.95098 9.38904 6.03276 8.93761 6.76956H8.96044V5.20444H5.53073C5.57549 6.2172 5.53046 16 5.53046 16L5.53055 15.9996Z" fill="white"/>
</svg>
