<svg width="46" height="40" viewBox="0 0 46 40" fill="none" xmlns="http://www.w3.org/2000/svg">
<rect width="46" height="40" rx="8" fill="white"/>
<path d="M18.896 17.664C22 17.664 22 20.512 22 20.896V26H19.392V21.488C19.392 20.528 18.944 19.968 18.064 19.968C17.232 19.968 16.704 20.528 16.704 21.488V26H14.112V21.488C14.112 20.528 13.648 19.968 12.784 19.968C11.968 19.968 11.424 20.544 11.424 21.536V26H8.816V17.872H11.424V18.608C11.936 18.016 12.688 17.664 13.664 17.664C14.848 17.664 15.712 18.112 16.208 18.912C16.736 18.128 17.648 17.664 18.896 17.664ZM29.6616 18.544L29.6136 17.872H32.1416V24.992C32.1416 27.872 30.2856 29.44 27.4216 29.44C25.7736 29.44 24.3496 28.928 23.2936 28.096L24.5736 26.192C25.2936 26.848 26.1576 27.248 27.1656 27.248C28.5256 27.248 29.5496 26.544 29.5496 25.28V25.056C28.9736 25.552 28.2216 25.84 27.3096 25.84C24.9576 25.84 23.1816 24.096 23.1816 21.76C23.1816 19.424 24.9576 17.68 27.3096 17.68C28.2696 17.68 29.0696 18 29.6616 18.544ZM27.6936 23.76C28.7816 23.76 29.6136 22.896 29.6136 21.76C29.6136 20.64 28.7816 19.776 27.6936 19.776C26.6056 19.776 25.7736 20.64 25.7736 21.76C25.7736 22.896 26.6056 23.76 27.6936 23.76ZM36.4091 26H33.7851V14.64H36.4091V26Z" fill="#212121"/>
</svg>
